<?xml version="1.0" encoding="UTF-8"?>
<!DOCTYPE svg PUBLIC "-//W3C//DTD SVG 1.1//EN" "http://www.w3.org/Graphics/SVG/1.1/DTD/svg11.dtd">
<svg xmlns="http://www.w3.org/2000/svg" version="1.1" width="80px" height="80px" style="shape-rendering:geometricPrecision; text-rendering:geometricPrecision; image-rendering:optimizeQuality; fill-rule:evenodd; clip-rule:evenodd" xmlns:xlink="http://www.w3.org/1999/xlink">
<g><path style="opacity:0.953" fill="#8aaed9" d="M 64.5,10.5 C 63.8333,10.8333 63.1667,11.1667 62.5,11.5C 59.931,8.27189 56.5977,6.27189 52.5,5.5C 47.4936,3.44071 42.1603,2.44071 36.5,2.5C 29.4884,3.33609 23.1551,5.83609 17.5,10C 19.476,10.1878 21.476,10.0212 23.5,9.5C 25.5566,9.4357 27.2233,10.1024 28.5,11.5C 23.5,11.5 18.5,11.5 13.5,11.5C 20.5824,4.30091 29.2491,0.967578 39.5,1.5C 49.237,0.879726 57.5703,3.87973 64.5,10.5 Z"/></g>
<g><path style="opacity:1" fill="#8ab6ef" d="M 36.5,2.5 C 42.1603,2.44071 47.4936,3.44071 52.5,5.5C 51.8333,7.5 51.1667,9.5 50.5,11.5C 46.8333,11.5 43.1667,11.5 39.5,11.5C 39.5,9.5 39.5,7.5 39.5,5.5C 38.5,5.5 37.5,5.5 36.5,5.5C 36.5,4.5 36.5,3.5 36.5,2.5 Z"/></g>
<g><path style="opacity:1" fill="#bfe5fd" d="M 36.5,2.5 C 36.5,3.5 36.5,4.5 36.5,5.5C 37.5,5.5 38.5,5.5 39.5,5.5C 39.5,7.5 39.5,9.5 39.5,11.5C 35.8333,11.5 32.1667,11.5 28.5,11.5C 27.2233,10.1024 25.5566,9.4357 23.5,9.5C 21.476,10.0212 19.476,10.1878 17.5,10C 23.1551,5.83609 29.4884,3.33609 36.5,2.5 Z"/></g>
<g><path style="opacity:1" fill="#bee5fd" d="M 52.5,5.5 C 56.5977,6.27189 59.931,8.27189 62.5,11.5C 58.5,11.5 54.5,11.5 50.5,11.5C 51.1667,9.5 51.8333,7.5 52.5,5.5 Z"/></g>
<g><path style="opacity:1" fill="#779ac8" d="M 64.5,10.5 C 77.7015,22.6773 81.2015,37.344 75,54.5C 72.6954,60.13 69.1954,64.7966 64.5,68.5C 63.2921,67.7659 61.9587,67.4326 60.5,67.5C 52.1667,67.5 43.8333,67.5 35.5,67.5C 30.5,67.5 25.5,67.5 20.5,67.5C 19.1667,67.5 17.8333,67.5 16.5,67.5C 15.5,67.5 14.5,67.5 13.5,67.5C 9.61286,64.7276 6.94619,61.0609 5.5,56.5C 5.5,55.8333 5.83333,55.5 6.5,55.5C 9.83333,55.5 13.1667,55.5 16.5,55.5C 21.1667,55.5 25.8333,55.5 30.5,55.5C 39.1667,55.5 47.8333,55.5 56.5,55.5C 61.8437,55.666 67.1771,55.4994 72.5,55C 74.1927,52.0655 75.1927,48.8989 75.5,45.5C 65.1667,45.5 54.8333,45.5 44.5,45.5C 34.1667,45.5 23.8333,45.5 13.5,45.5C 11.1667,45.5 8.83333,45.5 6.5,45.5C 5.5,45.5 4.5,45.5 3.5,45.5C 2.44272,44.794 2.77606,44.4607 4.5,44.5C 6.16667,44.5 7.83333,44.5 9.5,44.5C 12.1667,44.5 14.8333,44.5 17.5,44.5C 18.1667,44.5 18.8333,44.5 19.5,44.5C 28.1667,44.5 36.8333,44.5 45.5,44.5C 55.8333,44.5 66.1667,44.5 76.5,44.5C 76.5,41.1667 76.5,37.8333 76.5,34.5C 67.5,34.5 58.5,34.5 49.5,34.5C 40.5,34.5 31.5,34.5 22.5,34.5C 15.8333,34.5 9.16667,34.5 2.5,34.5C 2.5,36.8333 2.5,39.1667 2.5,41.5C 2.16667,41.5 1.83333,41.5 1.5,41.5C 0.545709,29.423 4.54571,19.423 13.5,11.5C 18.5,11.5 23.5,11.5 28.5,11.5C 32.1667,11.5 35.8333,11.5 39.5,11.5C 43.1667,11.5 46.8333,11.5 50.5,11.5C 54.5,11.5 58.5,11.5 62.5,11.5C 63.1667,11.1667 63.8333,10.8333 64.5,10.5 Z"/></g>
<g><path style="opacity:1" fill="#8bb7f0" d="M 58.5,23.5 C 63.1785,23.3342 67.8452,23.5008 72.5,24C 74.1927,26.9345 75.1927,30.1011 75.5,33.5C 67.1667,33.5 58.8333,33.5 50.5,33.5C 52.0243,29.3031 54.691,25.9698 58.5,23.5 Z"/></g>
<g><path style="opacity:1" fill="#c1e7fe" d="M 32.5,23.5 C 41.1667,23.5 49.8333,23.5 58.5,23.5C 54.691,25.9698 52.0243,29.3031 50.5,33.5C 43.1667,33.5 35.8333,33.5 28.5,33.5C 30.3545,32.3104 32.1879,30.9771 34,29.5C 34.7484,27.1599 34.2484,25.1599 32.5,23.5 Z"/></g>
<g><path style="opacity:1" fill="#8bb7f0" d="M 18.5,23.5 C 20.0378,26.0479 21.7044,26.0479 23.5,23.5C 26.5,23.5 29.5,23.5 32.5,23.5C 34.2484,25.1599 34.7484,27.1599 34,29.5C 32.1879,30.9771 30.3545,32.3104 28.5,33.5C 20.1667,33.5 11.8333,33.5 3.5,33.5C 3.59648,30.0441 4.59648,26.8774 6.5,24C 10.4862,23.5012 14.4862,23.3345 18.5,23.5 Z"/></g>
<g><path style="opacity:1" fill="#bfe5fe" d="M 18.5,23.5 C 20.1667,23.5 21.8333,23.5 23.5,23.5C 21.7044,26.0479 20.0378,26.0479 18.5,23.5 Z"/></g>
<g><path style="opacity:1" fill="#8bb7ef" d="M 60.5,12.5 C 62.1992,12.3398 63.8659,12.5065 65.5,13C 67.8333,16 70.1667,19 72.5,22C 68.1794,22.499 63.8461,22.6657 59.5,22.5C 58.7701,21.2876 57.7701,20.2876 56.5,19.5C 57.8611,17.1495 59.1944,14.8162 60.5,12.5 Z"/></g>
<g><path style="opacity:1" fill="#c0e7fe" d="M 30.5,12.5 C 33.1667,12.5 35.8333,12.5 38.5,12.5C 38.3379,14.5273 38.5045,16.5273 39,18.5C 43.1068,18.5062 46.2734,16.5062 48.5,12.5C 52.5,12.5 56.5,12.5 60.5,12.5C 59.1944,14.8162 57.8611,17.1495 56.5,19.5C 57.7701,20.2876 58.7701,21.2876 59.5,22.5C 45.7815,22.2206 32.1148,22.2206 18.5,22.5C 18.7438,19.7374 20.0771,17.5707 22.5,16C 25.5,16.3333 28.5,16.6667 31.5,17C 32.5814,15.2894 32.248,13.7894 30.5,12.5 Z"/></g>
<g><path style="opacity:1" fill="#8eb9f0" d="M 38.5,12.5 C 41.8333,12.5 45.1667,12.5 48.5,12.5C 46.2734,16.5062 43.1068,18.5062 39,18.5C 38.5045,16.5273 38.3379,14.5273 38.5,12.5 Z"/></g>
<g><path style="opacity:1" fill="#8cb8f0" d="M 30.5,12.5 C 32.248,13.7894 32.5814,15.2894 31.5,17C 28.5,16.6667 25.5,16.3333 22.5,16C 20.0771,17.5707 18.7438,19.7374 18.5,22.5C 14.4862,22.6655 10.4862,22.4988 6.5,22C 8.83333,19 11.1667,16 13.5,13C 19.1569,12.5006 24.8236,12.3339 30.5,12.5 Z"/></g>
<g><path style="opacity:1" fill="#8bb7f0" d="M 22.5,34.5 C 19.8574,37.2336 18.8574,40.5669 19.5,44.5C 18.8333,44.5 18.1667,44.5 17.5,44.5C 17.5858,43.5041 17.2524,42.6708 16.5,42C 12.8909,39.4758 10.5575,40.3091 9.5,44.5C 7.83333,44.5 6.16667,44.5 4.5,44.5C 3.83333,43.5 3.16667,42.5 2.5,41.5C 2.5,39.1667 2.5,36.8333 2.5,34.5C 9.16667,34.5 15.8333,34.5 22.5,34.5 Z"/></g>
<g><path style="opacity:1" fill="#c1e7fe" d="M 22.5,34.5 C 31.5,34.5 40.5,34.5 49.5,34.5C 48.7241,38.0525 47.3908,41.3858 45.5,44.5C 36.8333,44.5 28.1667,44.5 19.5,44.5C 18.8574,40.5669 19.8574,37.2336 22.5,34.5 Z"/></g>
<g><path style="opacity:1" fill="#8bb6ef" d="M 49.5,34.5 C 58.5,34.5 67.5,34.5 76.5,34.5C 76.5,37.8333 76.5,41.1667 76.5,44.5C 66.1667,44.5 55.8333,44.5 45.5,44.5C 47.3908,41.3858 48.7241,38.0525 49.5,34.5 Z"/></g>
<g><path style="opacity:1" fill="#bfe5fe" d="M 17.5,44.5 C 14.8333,44.5 12.1667,44.5 9.5,44.5C 10.5575,40.3091 12.8909,39.4758 16.5,42C 17.2524,42.6708 17.5858,43.5041 17.5,44.5 Z"/></g>
<g><path style="opacity:1" fill="#c0e6fe" d="M 3.5,45.5 C 4.5,45.5 5.5,45.5 6.5,45.5C 8.71578,48.4442 11.7158,50.1109 15.5,50.5C 16.038,52.1172 16.3713,53.7839 16.5,55.5C 13.1667,55.5 9.83333,55.5 6.5,55.5C 4.88481,52.3773 3.88481,49.044 3.5,45.5 Z"/></g>
<g><path style="opacity:1" fill="#8fbaf1" d="M 6.5,45.5 C 8.83333,45.5 11.1667,45.5 13.5,45.5C 14.1667,47.1667 14.8333,48.8333 15.5,50.5C 11.7158,50.1109 8.71578,48.4442 6.5,45.5 Z"/></g>
<g><path style="opacity:1" fill="#c0e6fe" d="M 13.5,45.5 C 23.8333,45.5 34.1667,45.5 44.5,45.5C 44.2011,47.604 44.5344,49.604 45.5,51.5C 48.1092,52.2305 50.7759,52.7305 53.5,53C 54.9423,53.3768 55.9423,54.2101 56.5,55.5C 47.8333,55.5 39.1667,55.5 30.5,55.5C 30.67,54.1779 30.3366,53.0113 29.5,52C 24.9342,50.6908 20.2675,50.1908 15.5,50.5C 14.8333,48.8333 14.1667,47.1667 13.5,45.5 Z"/></g>
<g><path style="opacity:1" fill="#8bb7ef" d="M 44.5,45.5 C 54.8333,45.5 65.1667,45.5 75.5,45.5C 75.1927,48.8989 74.1927,52.0655 72.5,55C 67.1771,55.4994 61.8437,55.666 56.5,55.5C 55.9423,54.2101 54.9423,53.3768 53.5,53C 50.7759,52.7305 48.1092,52.2305 45.5,51.5C 44.5344,49.604 44.2011,47.604 44.5,45.5 Z"/></g>
<g><path style="opacity:0.392" fill="#8eb2d8" d="M 1.5,41.5 C 1.83333,41.5 2.16667,41.5 2.5,41.5C 3.16667,42.5 3.83333,43.5 4.5,44.5C 2.77606,44.4607 2.44272,44.794 3.5,45.5C 3.88481,49.044 4.88481,52.3773 6.5,55.5C 5.83333,55.5 5.5,55.8333 5.5,56.5C 2.56986,52.0256 1.23653,47.0256 1.5,41.5 Z"/></g>
<g><path style="opacity:1" fill="#8cb8f0" d="M 15.5,50.5 C 20.2675,50.1908 24.9342,50.6908 29.5,52C 30.3366,53.0113 30.67,54.1779 30.5,55.5C 25.8333,55.5 21.1667,55.5 16.5,55.5C 16.3713,53.7839 16.038,52.1172 15.5,50.5 Z"/></g>
<g><path style="opacity:1" fill="#c0e6fd" d="M 16.5,56.5 C 16.9493,60.0476 17.9493,63.381 19.5,66.5C 17.4727,66.6621 15.4727,66.4955 13.5,66C 11.3056,63.3053 9.30561,60.472 7.5,57.5C 10.4281,56.5159 13.4281,56.1826 16.5,56.5 Z"/></g>
<g><path style="opacity:1" fill="#8cb8f0" d="M 16.5,56.5 C 22.5,56.5 28.5,56.5 34.5,56.5C 35.8775,57.2344 37.3775,57.9011 39,58.5C 39.4462,61.3327 38.9462,63.9994 37.5,66.5C 31.5,66.5 25.5,66.5 19.5,66.5C 17.9493,63.381 16.9493,60.0476 16.5,56.5 Z"/></g>
<g><path style="opacity:1" fill="#c1e7fe" d="M 34.5,56.5 C 42.1667,56.5 49.8333,56.5 57.5,56.5C 57.5758,59.9728 58.2424,63.3061 59.5,66.5C 52.1667,66.5 44.8333,66.5 37.5,66.5C 38.9462,63.9994 39.4462,61.3327 39,58.5C 37.3775,57.9011 35.8775,57.2344 34.5,56.5 Z"/></g>
<g><path style="opacity:1" fill="#8bb7ef" d="M 57.5,56.5 C 62.2137,56.1734 66.8804,56.5067 71.5,57.5C 69.6944,60.472 67.6944,63.3053 65.5,66C 63.5273,66.4955 61.5273,66.6621 59.5,66.5C 58.2424,63.3061 57.5758,59.9728 57.5,56.5 Z"/></g>
<g><path style="opacity:0.969" fill="#87aad5" d="M 13.5,67.5 C 14.5,67.5 15.5,67.5 16.5,67.5C 17.2623,69.2624 18.5956,70.2624 20.5,70.5C 23.0878,72.6246 26.0878,73.9579 29.5,74.5C 39.8892,77.5005 49.8892,76.1671 59.5,70.5C 60.3857,69.675 60.719,68.675 60.5,67.5C 61.9587,67.4326 63.2921,67.7659 64.5,68.5C 57.4753,74.8439 49.142,77.8439 39.5,77.5C 29.2969,77.8813 20.6303,74.5479 13.5,67.5 Z"/></g>
<g><path style="opacity:1" fill="#c0e6fe" d="M 35.5,67.5 C 43.8333,67.5 52.1667,67.5 60.5,67.5C 60.719,68.675 60.3857,69.675 59.5,70.5C 49.8892,76.1671 39.8892,77.5005 29.5,74.5C 31.4707,72.1918 33.4707,69.8585 35.5,67.5 Z"/></g>
<g><path style="opacity:1" fill="#8cb7f0" d="M 20.5,67.5 C 25.5,67.5 30.5,67.5 35.5,67.5C 33.4707,69.8585 31.4707,72.1918 29.5,74.5C 26.0878,73.9579 23.0878,72.6246 20.5,70.5C 20.5,69.5 20.5,68.5 20.5,67.5 Z"/></g>
<g><path style="opacity:1" fill="#bee4fc" d="M 16.5,67.5 C 17.8333,67.5 19.1667,67.5 20.5,67.5C 20.5,68.5 20.5,69.5 20.5,70.5C 18.5956,70.2624 17.2623,69.2624 16.5,67.5 Z"/></g>
</svg>
